<svg fill="#fff" xmlns="http://www.w3.org/2000/svg" width="36.651" height="23.357" viewBox="0 0 36.651 23.357"><g transform="translate(-17 -23)"><path d="M35.974,12.111C35.437,9.415,23.7,8.66,22.808,8.66,14.836,8.714-.749,13.081-.66,13.674s5.553,3.343,12,3.343c1.433,0,2.866-.054,3.941-.162,2.06-.162,9.674-1.078,14.152-1.456C33.287,15.13,36.243,13.62,35.974,12.111Z" transform="translate(17.66 14.34)"/><path d="M35.974,12.111C35.437,9.415,23.7,8.66,22.808,8.66,14.836,8.714-.749,13.081-.66,13.674s5.553,3.343,12,3.343c1.433,0,2.866-.054,3.941-.162,2.06-.162,9.674-1.078,14.152-1.456C33.287,15.13,36.243,13.62,35.974,12.111Z" transform="translate(52.991 55.017) rotate(180)"/></g></svg>