<svg xmlns="http://www.w3.org/2000/svg" width="31.826" height="31.826" viewBox="0 0 31.826 31.826">
    <g id="close_icon" transform="translate(0)">
        <path fill="#fff" id="Path_4512" data-name="Path 4512" d="M35.974,12.111C35.437,9.415,23.7,8.66,22.808,8.66,14.836,8.714-.749,13.081-.66,13.674s5.553,3.343,12,3.343c1.433,0,2.866-.054,3.941-.162,2.06-.162,9.674-1.078,14.152-1.456C33.287,15.13,36.243,13.62,35.974,12.111Z" transform="translate(-5.657 19.326) rotate(-45)"/>
        <path fill="#fff" id="Path_4513" data-name="Path 4513" d="M35.974,12.111C35.437,9.415,23.7,8.66,22.808,8.66,14.836,8.714-.749,13.081-.66,13.674s5.553,3.343,12,3.343c1.433,0,2.866-.054,3.941-.162,2.06-.162,9.674-1.078,14.152-1.456C33.287,15.13,36.243,13.62,35.974,12.111Z" transform="translate(19.326 37.482) rotate(-135)"/>
    </g>
</svg>